<?xml version="1.0" encoding="UTF-8" standalone="no"?>
<svg height="512" style="enable-background:new" xmlns="http://www.w3.org/2000/svg" xmlns:osb="http://www.openswatchbook.org/uri/2009/osb" width="512" version="1.0" xmlns:xlink="http://www.w3.org/1999/xlink">
 <title>Template</title>
 <defs>
  <linearGradient id="a" y2="300" gradientUnits="userSpaceOnUse" x2="512" y1="44.01" x1="256">
   <stop stop-color="#eb6536" offset="0"/>
   <stop stop-color="#fb8640" offset="1"/>
  </linearGradient>
 </defs>
 <g transform="translate(0,212)">
  <g opacity=".96">
   <g>
    <rect opacity="1" style="color-rendering:auto;color:#000000;isolation:auto;mix-blend-mode:normal;paint-order:stroke fill markers;shape-rendering:auto;solid-color:#000000;image-rendering:auto;enable-background:accumulate" height="512" width="512" y="-212" x="0" fill="url(#a)"/>
    <rect style="color:#000000;enable-background:accumulate" transform="rotate(90)" height="360.4" width="360.4" y="-436.2" x="-136.2" fill="none"/>
    <path style="color:#000000;enable-background:accumulate" d="m211-27.56c-13.31 3.013-36.05 7.493-30.01 27.74 7.683 25.74 29.34 49.16 47.26 67.08l-0.00049 0.000464c0.0179 0.01788 0.0354 0.03561 0.0533 0.05331 0.0179 0.01788 0.0354 0.03561 0.0533 0.05331l0.00048-0.000447c17.92 17.92 41.35 39.57 67.08 47.26 20.25 6.045 24.73-16.7 27.74-30.01l-42.9-18.89-16.8 9.08c-6.2-3.98-17-13.95-23.7-20.61-6.6-6.65-16.6-17.41-20.6-23.64l10.79-15.14-18.9-42.98z" fill="#f0f0f0"/>
   </g>
   <path d="m256.3 98.31c-6.625-0.0083-13.32 0.4017-20.07 1.252-86.2 10.84-147.5 89.84-136.6 176.1 10.8 86.4 89.8 147.6 176.1 136.8 85.7-10.8 146.7-88.8 137-174.4l-17.4-133.9-124.8-5.6s-9.109-0.2886-14.17-0.2949zm0 15.01c70.84 0.0538 132.1 52.69 141.2 124.8 9.868 78.27-45.44 149.5-123.7 159.4-78.26 9.868-149.5-45.44-159.4-123.7-9.868-78.27 45.44-149.5 123.7-159.4 6.114-0.7709 12.19-1.143 18.19-1.139z" transform="translate(0,-212)" fill="#f0f0f0"/>
  </g>
 </g>
</svg>
